<svg width="192" height="192" viewBox="0 0 192 192" fill="none" xmlns="http://www.w3.org/2000/svg">
<rect width="192" height="192" fill="#81B3D3"/>
<path d="M67.1472 117.44C67.2728 117.567 67.3364 117.692 67.3364 117.819C67.4636 117.819 67.5891 117.881 67.7147 118.007C71.1228 121.785 74.9744 125.311 79.2663 128.586C83.5582 131.733 88.4828 133.433 94.0369 133.685C94.1641 133.685 94.2896 133.751 94.4152 133.876H94.9843C95.1099 133.876 95.2371 133.938 95.3626 134.064H97.445C98.0777 133.938 98.6451 133.812 99.1506 133.685C101.174 133.307 103.104 132.537 104.832 131.419C106.723 130.286 108.176 128.9 109.186 127.263L109.566 126.507L109.944 125.752C110.197 124.87 110.386 124.052 110.513 123.296C110.639 122.541 110.702 121.848 110.702 121.219C110.702 117.819 109.186 114.985 106.158 112.717C103.334 110.371 100.132 108.518 96.6883 107.239C95.3931 106.762 94.0636 106.384 92.7112 106.107C91.5239 105.748 90.3241 105.433 89.1139 105.162H88.7356C88.6084 105.036 88.4828 104.973 88.3573 104.973C82.2169 103.48 76.3416 101.059 70.9353 97.7942C65.5052 94.3945 61.7824 89.5453 59.762 83.2484C59.3663 81.9307 58.9874 80.6081 58.6254 79.2809C58.3662 77.8431 58.1768 76.3937 58.0579 74.9376C57.9416 74.5055 57.8781 74.0609 57.8688 73.6135V69.0799C57.9943 68.073 58.1835 67.0661 58.4362 66.0576C58.8283 63.4852 59.4621 60.9554 60.3294 58.5016C61.2133 55.9835 62.3498 53.7159 63.7375 51.702C67.7783 45.0261 72.954 40.2404 79.2663 37.3449C85.7058 34.4478 92.3964 33 99.3398 33C100.982 33 102.622 33.1253 104.264 33.3774C106.038 33.5038 107.806 33.6926 109.566 33.9435C114.171 34.7162 118.678 35.9831 123.011 37.7223C127.555 39.4856 131.722 41.5629 135.51 43.9557L125.095 67.1914C121.696 64.679 118.084 62.467 114.3 60.5805C110.513 58.6903 106.41 57.7468 101.991 57.7468H100.475C97.5722 58.1242 94.8587 59.4467 92.3328 61.7127C89.8086 63.8534 88.5464 66.1844 88.5464 68.7025V69.8363C88.672 70.2137 88.8612 70.5911 89.1139 70.9701C89.3667 71.8518 89.8086 72.67 90.4396 73.4264C91.0707 74.1812 91.7654 74.8742 92.522 75.5037C93.9113 76.6375 95.9301 77.7079 98.5832 78.7148C101.233 79.5965 104.012 80.4781 106.916 81.3598C109.313 81.9893 111.648 82.6189 113.921 83.2484C116.194 83.7527 118.088 84.2569 119.602 84.7612C126.671 87.2793 131.974 91.4973 135.51 97.4168C139.043 103.209 140.874 109.381 141 115.929V116.874C141 117.63 140.938 118.386 140.811 119.141V121.219C140.054 127.768 137.908 134.001 134.373 139.921C130.965 145.84 126.357 150.374 120.55 153.523C118.394 154.534 116.181 155.416 113.921 156.166C111.664 156.793 109.392 157.36 107.105 157.868C105.23 158.243 103.332 158.495 101.424 158.623C99.6035 158.869 97.7688 158.995 95.9317 159H93.8477C86.2733 158.749 78.8261 157.111 71.5027 154.087C64.1811 150.94 57.6796 146.784 52 141.62L67.1472 117.44Z" fill="white"/>
</svg>
